<svg height="512pt" viewBox="-40 0 512 512.00102" width="512pt" xmlns="http://www.w3.org/2000/svg"><path d="m352.511719 446.554688v57.824218h-272.8125v-57.824218c0-75.335938 61.066406-136.414063 136.398437-136.414063 10.660156 0 21.035156 1.230469 30.992188 3.535156 25.230468 5.863281 47.765625 18.726563 65.46875 36.417969 24.679687 24.691406 39.953125 58.792969 39.953125 96.460938zm0 0" fill="#e22b2b"/><path d="m352.511719 446.554688v57.824218h-210.832031v-57.824218c0-64.675782 45.011718-118.84375 105.410156-132.878907 25.230468 5.863281 47.765625 18.726563 65.46875 36.417969 24.679687 24.691406 39.953125 58.792969 39.953125 96.460938zm0 0" fill="#f94141"/><path d="m282.480469 356.652344-30.371094 61.632812-36.007813-39.199218-36.011718 39.199218-30.371094-61.632812" fill="#e4e4ef"/><path d="m79.691406 164.167969c-6.816406-3.566407-14.570312-5.578125-22.789062-5.578125-27.222656 0-49.28125 22.0625-49.28125 49.28125 0 27.222656 22.058594 49.28125 49.28125 49.28125 8.523437 0 16.542968-2.164063 23.53125-5.964844h272.074218c6.988282 3.800781 15.007813 5.964844 23.53125 5.964844 27.222657 0 49.28125-22.058594 49.28125-49.28125 0-27.21875-22.058593-49.28125-49.28125-49.28125-8.21875 0-15.972656 2.011718-22.789062 5.578125" fill="#e8b182"/><path d="m352.511719 144.027344v92.894531c0 66.472656-47.554688 121.839844-110.503907 133.941406-8.382812 1.617188-17.046874 2.460938-25.910156 2.460938-75.332031 0-136.398437-61.070313-136.398437-136.402344v-92.894531c0-75.332032 61.066406-136.410156 136.398437-136.410156 8.863282 0 17.527344.84375 25.910156 2.460937 27.285157 5.242187 51.671876 18.613281 70.550782 37.492187 24.679687 24.691407 39.953125 58.792969 39.953125 96.457032zm0 0" fill="#e8b182"/><path d="m352.511719 144.027344v92.894531c0 66.472656-47.554688 121.839844-110.503907 133.941406-62.945312-12.101562-110.5-67.46875-110.5-133.941406v-92.894531c0-66.472656 47.554688-121.847656 110.5-133.949219 27.285157 5.242187 51.671876 18.613281 70.550782 37.492187 24.679687 24.691407 39.953125 58.792969 39.953125 96.457032zm0 0" fill="#ffd0a6"/><path d="m352.511719 144.027344v20.140625c-161.488281-.203125-215.171875-66.25-215.171875-66.25 0 27.433593-27.433594 56.382812-57.640625 66.25v-20.140625c0-75.332032 61.066406-136.410156 136.402343-136.410156 8.859376 0 17.527344.84375 25.910157 2.460937 27.28125 5.242187 51.667969 18.613281 70.546875 37.492187 24.683594 24.691407 39.953125 58.792969 39.953125 96.457032zm0 0" fill="#5b5b68"/><path d="m242.003906 10.078125c-48.234375 9.277344-87.425781 43.953125-103.121094 89.566406-1.046874-1.105469-1.546874-1.726562-1.546874-1.726562 0 27.433593-27.433594 56.382812-57.644532 66.25v-20.140625c0-75.332032 61.070313-136.410156 136.402344-136.410156 8.859375 0 17.527344.84375 25.910156 2.460937zm0 0" fill="#40404c"/><path d="m375.941406 460.449219v10.335937c0 9.277344-3.757812 17.675782-9.84375 23.75-3.65625 3.667969-8.152344 6.484375-13.191406 8.136719-3.324219 1.113281-6.863281 1.707031-10.558594 1.707031-18.554687 0-33.59375-15.039062-33.59375-33.59375v-10.335937c0-18.554688 15.039063-33.59375 33.59375-33.59375 3.695313 0 7.234375.59375 10.558594 1.703125 13.382812 4.417968 23.035156 17.03125 23.035156 31.890625zm0 0" fill="#e8b182"/><path d="m375.941406 460.449219v10.335937c0 9.277344-3.757812 17.675782-9.84375 23.75-3.65625 3.667969-8.152344 6.484375-13.191406 8.136719-13.386719-4.40625-23.054688-17.015625-23.054688-31.886719v-10.339844c0-14.871093 9.667969-27.480468 23.054688-31.886718 13.382812 4.417968 23.035156 17.03125 23.035156 31.890625zm0 0" fill="#ffd0a6"/><path d="m375.941406 404.242188v56.207031l-21.320312-22.171875-10.980469-11.421875v-22.613281c0-4.457032 1.808594-8.5 4.726563-11.421876 2.921874-2.921874 6.964843-4.730468 11.421874-4.730468 1.925782 0 3.773438.339844 5.492188.957031 6.21875 2.25 10.660156 8.203125 10.660156 15.195313zm0 0" fill="#e8b182"/><path d="m375.941406 404.242188v56.207031l-21.320312-22.171875v-34.035156c0-4.457032 1.808594-8.5 4.730468-11.421876 1.65625-1.652343 3.683594-2.957031 5.929688-3.773437 6.21875 2.25 10.660156 8.203125 10.660156 15.195313zm0 0" fill="#ffd0a6"/><path d="m56.265625 460.449219v10.335937c0 9.277344 3.757813 17.675782 9.84375 23.75 3.65625 3.667969 8.152344 6.484375 13.191406 8.136719 3.320313 1.113281 6.863281 1.707031 10.558594 1.707031 18.554687 0 33.59375-15.039062 33.59375-33.59375v-10.335937c0-18.554688-15.039063-33.59375-33.59375-33.59375-3.695313 0-7.238281.59375-10.558594 1.703125-13.386719 4.417968-23.035156 17.03125-23.035156 31.890625zm0 0" fill="#e8b182"/><path d="m56.265625 460.449219v10.335937c0 9.277344 3.757813 17.675782 9.84375 23.75 3.65625 3.667969 8.152344 6.484375 13.191406 8.136719 13.386719-4.40625 23.050781-17.015625 23.050781-31.886719v-10.339844c0-14.871093-9.664062-27.480468-23.050781-31.886718-13.386719 4.417968-23.035156 17.03125-23.035156 31.890625zm0 0" fill="#ffd0a6"/><path d="m56.265625 404.242188v56.207031l21.316406-22.171875 10.984375-11.421875v-22.613281c0-4.457032-1.808594-8.5-4.726562-11.421876-2.921875-2.921874-6.964844-4.730468-11.425782-4.730468-1.921874 0-3.769531.339844-5.488281.957031-6.21875 2.25-10.660156 8.203125-10.660156 15.195313zm0 0" fill="#e8b182"/><path d="m56.265625 404.242188v56.207031l21.316406-22.171875v-34.035156c0-4.457032-1.808593-8.5-4.726562-11.421876-1.65625-1.652343-3.683594-2.957031-5.929688-3.773437-6.21875 2.25-10.660156 8.203125-10.660156 15.195313zm0 0" fill="#ffd0a6"/><path d="m173.164062 260.128906c-2.976562 2.976563-2.976562 7.800782 0 10.777344 11.839844 11.835938 27.386719 17.753906 42.9375 17.753906 15.550782 0 31.101563-5.917968 42.9375-17.753906 2.976563-2.976562 2.976563-7.804688 0-10.777344-2.976562-2.976562-7.800781-2.976562-10.777343 0-17.730469 17.730469-46.585938 17.730469-64.320313 0-2.976562-2.976562-7.800781-2.976562-10.777344 0zm0 0"/><path d="m178.398438 210.0625c1.488281 1.488281 3.4375 2.230469 5.386718 2.230469 1.949219 0 3.902344-.742188 5.390625-2.230469 2.972657-2.976562 2.972657-7.804688 0-10.777344-19.613281-19.613281-51.523437-19.613281-71.132812 0-2.976563 2.976563-2.976563 7.800782 0 10.777344 2.976562 2.972656 7.800781 2.972656 10.777343 0 13.671876-13.667969 35.910157-13.667969 49.578126 0zm0 0"/><path d="m253.804688 210.0625c13.667968-13.667969 35.90625-13.667969 49.574218 0 1.488282 1.484375 3.4375 2.230469 5.390625 2.230469 1.949219 0 3.898438-.742188 5.386719-2.230469 2.976562-2.976562 2.976562-7.804688 0-10.777344-9.5-9.5-22.128906-14.734375-35.566406-14.734375-13.433594 0-26.0625 5.234375-35.5625 14.734375-2.976563 2.976563-2.976563 7.800782 0 10.777344 2.972656 2.972656 7.800781 2.972656 10.777344 0zm0 0"/><path d="m357.964844 261.816406c5.804687 1.9375 11.917968 2.957032 18.074218 2.957032 31.375 0 56.902344-25.527344 56.902344-56.902344s-25.527344-56.902344-56.902344-56.902344c-5.390624 0-10.757812.796875-15.910156 2.289062v-9.230468c0-38.472656-14.984375-74.640625-42.1875-101.84375-2.976562-2.976563-7.800781-2.976563-10.777344 0-2.972656 2.976562-2.972656 7.800781 0 10.777344 24.324219 24.324218 37.722657 56.664062 37.722657 91.0625v12.460937c-44.449219-.679687-104.9375-7.042969-155.910157-31.75-32.292968-15.652344-45.609374-31.492187-45.71875-31.625-2.035156-2.503906-5.425781-3.453125-8.464843-2.375-3.039063 1.078125-5.070313 3.953125-5.070313 7.179687 0 19.992188-18.589844 43.316407-42.40625 54.941407v-8.832031c-.003906-71.007813 57.769532-128.78125 128.785156-128.78125 24.199219 0 47.777344 6.746093 68.1875 19.511718 3.570313 2.230469 8.269532 1.148438 10.5-2.421875 2.234376-3.566406 1.148438-8.269531-2.417968-10.503906-22.835938-14.28125-49.210938-21.828125-76.269532-21.828125-79.417968 0-144.027343 64.609375-144.027343 144.027344v9.027344c-4.925781-1.359376-10.039063-2.082032-15.171875-2.082032-31.375 0-56.902344 25.523438-56.902344 56.898438 0 31.378906 25.527344 56.902344 56.902344 56.902344 5.90625 0 11.777344-.925782 17.371094-2.710938 5.5 31.117188 21.03125 58.816406 43.113281 79.632812-13.058594 12.296876-23.710938 26.917969-31.398438 43.050782-3.851562-2.691406-8.53125-4.273438-13.574219-4.273438-13.105468 0-23.773437 10.664063-23.773437 23.769532v66.542968c0 22.726563 18.492187 41.214844 41.214844 41.214844h49.394531c4.207031 0 7.621094-3.410156 7.621094-7.621094 0-4.207031-3.414063-7.621094-7.621094-7.621094h-17.421875c5.773437-7.09375 9.246094-16.132812 9.246094-25.972656v-10.335937c0-20.574219-15.15625-37.675781-34.886719-40.730469v-15.476562c0-1.324219-.113281-2.621094-.324219-3.886719 7.144531-18.5625 18.550781-35.261719 33.242188-48.734375 4.589843 3.492187 9.394531 6.710937 14.386719 9.640625l29.761718 60.394531c1.113282 2.253906 3.265625 3.816406 5.753906 4.171875.363282.050781.722657.078125 1.082032.078125 2.117187 0 4.160156-.882812 5.613281-2.464844l22.777344-24.796875v33.867188c0 4.207031 3.414062 7.621093 7.621093 7.621093 4.207032 0 7.621094-3.414062 7.621094-7.621093v-33.863281l22.777344 24.792968c1.699219 1.851563 4.203125 2.746094 6.695312 2.386719 2.488282-.355469 4.640626-1.917969 5.75-4.171875l29.761719-60.398438c5.003907-2.929687 9.8125-6.15625 14.40625-9.648437 1.386719 1.265625 2.742188 2.558594 4.054688 3.871094 12.707031 12.71875 22.753906 28.203125 29.171875 44.890625-.207032 1.261718-.320313 2.554687-.320313 3.871094v15.480468c-19.730469 3.050782-34.886719 20.152344-34.886719 40.726563v10.335937c0 9.839844 3.472657 18.882813 9.246094 25.972656h-140.644531c-4.210937 0-7.621094 3.414063-7.621094 7.621094 0 4.210938 3.410157 7.621094 7.621094 7.621094h172.613281c22.726563 0 41.214844-18.488281 41.214844-41.214844v-66.542968c0-13.105469-10.664062-23.769532-23.769531-23.769532-5.054688 0-9.738281 1.585938-13.59375 4.285156-7.046875-14.777343-16.660157-28.449218-28.253907-40.050781-1.019531-1.019531-2.066406-2.023437-3.125-3.019531 22.136719-20.871094 37.683594-48.65625 43.144532-79.871094zm-285.550782 133.894532c4.703126 0 8.53125 3.828124 8.53125 8.53125v15.972656c-6.359374 1.40625-12.171874 4.285156-17.058593 8.261718v-24.234374c0-4.703126 3.824219-8.53125 8.527343-8.53125zm43.417969 64.738281v10.335937c0 14.320313-11.652343 25.972656-25.972656 25.972656-14.324219 0-25.976563-11.652343-25.976563-25.972656v-10.335937c0-14.324219 11.652344-25.976563 25.976563-25.976563 14.320313 0 25.972656 11.652344 25.972656 25.976563zm252.488281 10.335937c0 14.320313-11.648437 25.972656-25.972656 25.972656-14.320312 0-25.972656-11.652343-25.972656-25.972656v-10.335937c0-14.324219 11.652344-25.976563 25.972656-25.976563 14.324219 0 25.972656 11.652344 25.972656 25.976563zm-8.527343-75.074218c4.703125 0 8.527343 3.828124 8.527343 8.53125v24.234374c-4.886718-3.976562-10.699218-6.855468-17.058593-8.261718v-15.972656c0-4.703126 3.828125-8.53125 8.53125-8.53125zm57.90625-187.839844c0 22.972656-18.6875 41.660156-41.660157 41.660156-5.582031 0-11.113281-1.140625-16.222656-3.292969.199219-3.082031.3125-6.191406.3125-9.320312v-25.789063s0-2.089844 0-3.257812c0-8.363282 7.542969-15.171875 15.910156-15.171875 8.367188 0 15.175782 6.804687 15.175782 15.171875 0 8.371094-6.808594 15.175781-15.175782 15.175781-4.207031 0-7.621093 3.414063-7.621093 7.621094s3.414062 7.621093 7.621093 7.621093c16.769532 0 30.414063-13.644531 30.414063-30.417968 0-16.769532-13.640625-30.414063-30.414063-30.414063-5.832031 0-11.28125 1.652344-15.910156 4.507813v-12.589844c5.023438-2.089844 10.355469-3.164062 15.910156-3.164062 22.972657 0 41.660157 18.691406 41.660157 41.660156zm-360.796875 41.660156c-22.972656 0-41.660156-18.6875-41.660156-41.660156 0-22.96875 18.6875-41.660156 41.660156-41.660156 5.28125 0 10.363281.96875 15.171875 2.859374v12.457032c-4.46875-2.582032-9.648438-4.070313-15.171875-4.070313-16.769532 0-30.417969 13.644531-30.417969 30.414063 0 16.773437 13.644531 30.417968 30.417969 30.417968 4.207031 0 7.621094-3.414062 7.621094-7.621093s-3.414063-7.621094-7.621094-7.621094c-8.367188 0-15.175782-6.804687-15.175782-15.175781 0-8.367188 6.808594-15.171875 15.175782-15.171875 8.339844 0 15.128906 6.765625 15.171875 15.09375v29.125c0 3.234375.117187 6.441406.328125 9.625-4.902344 1.960937-10.179688 2.988281-15.5 2.988281zm30.410156-12.613281v-67.410157c14.28125-5.652343 27.691406-15.019531 38.21875-26.796874 8.238281-9.21875 14.042969-19.253907 17.050781-29.273438 7.976563 6.644531 20.519531 15.574219 38.578125 24.445312 30.449219 14.957032 83.265625 32.6875 163.726563 33.84375v65.191407c0 71.011719-57.773438 128.785156-128.785157 128.785156-71.015624 0-128.789062-57.773437-128.789062-128.785156zm94.695312 168.015625-16.3125-33.097656c12.234376 4.585937 25.246094 7.554687 38.78125 8.640624zm68.1875 0-22.472656-24.457032c13.539063-1.085937 26.550782-4.054687 38.78125-8.640624zm0 0"/></svg>